<svg xmlns="http://www.w3.org/2000/svg" viewBox="0 0 1190 841" width="1190" height="841" font-family="Arial, Helvetica, sans-serif">
  <!-- Background -->
  <rect width="1190" height="841" fill="#f5f7fa"/>

  <!-- ===== HEADER ===== -->
  <rect x="0" y="0" width="1190" height="110" fill="#ffffff"/>
  <rect x="0" y="108" width="1190" height="2" fill="#1a3a5c"/>

  <!-- Zewail City Logo Area -->
  <rect x="12" y="8" width="130" height="100" fill="white"/>
  <!-- Mountains icon simplified -->
  <polygon points="35,85 55,50 75,75 85,58 110,85" fill="none" stroke="#2c6e8a" stroke-width="2.5"/>
  <polygon points="35,85 55,50 75,75" fill="#2c6e8a" opacity="0.3"/>
  <text x="77" y="94" font-size="6.5" fill="#1a3a5c" font-weight="bold" text-anchor="middle">ZEWAIL CITY</text>
  <text x="77" y="102" font-size="5" fill="#1a3a5c" text-anchor="middle">OF SCIENCE AND TECHNOLOGY</text>

  <!-- FINDOOR Title -->
  <text x="595" y="48" font-size="48" fill="#1a3a5c" font-weight="900" text-anchor="middle" letter-spacing="2">FINDOOR</text>
  <!-- House icon in title -->
  <polygon points="670,14 680,6 690,14" fill="#2d7d46" stroke="#2d7d46" stroke-width="1"/>
  <rect x="672" y="14" width="16" height="12" fill="none" stroke="#2d7d46" stroke-width="1.5"/>
  <rect x="676" y="19" width="4" height="7" fill="#2d7d46"/>
  <text x="595" y="68" font-size="16" fill="#2d7d46" font-weight="700" text-anchor="middle" letter-spacing="3">GOVERNMENT HOUSING SYSTEM</text>
  <text x="595" y="84" font-size="9.5" fill="#555" text-anchor="middle" font-style="italic">A Smart Digital Platform for Exploring and Accessing Government Housing Projects</text>

  <!-- Team info boxes -->
  <!-- Team Members -->
  <rect x="720" y="10" width="155" height="88" fill="#f0f4f8" rx="4"/>
  <text x="797" y="26" font-size="8.5" fill="#1a3a5c" font-weight="bold" text-anchor="middle">👥 TEAM MEMBERS</text>
  <line x1="728" y1="30" x2="867" y2="30" stroke="#ccc" stroke-width="0.5"/>
  <text x="797" y="44" font-size="8" fill="#333" text-anchor="middle">Basmala Amr Sharawy</text>
  <text x="797" y="57" font-size="8" fill="#333" text-anchor="middle">Basmala Alaa Ebrahim</text>
  <text x="797" y="70" font-size="8" fill="#333" text-anchor="middle">Basel Ashraf Aziz</text>

  <!-- Supervisor -->
  <rect x="882" y="10" width="145" height="88" fill="#f0f4f8" rx="4"/>
  <text x="954" y="26" font-size="8.5" fill="#1a3a5c" font-weight="bold" text-anchor="middle">🎓 SUPERVISOR</text>
  <line x1="890" y1="30" x2="1020" y2="30" stroke="#ccc" stroke-width="0.5"/>
  <text x="954" y="50" font-size="8" fill="#333" text-anchor="middle">Dr. Yousry Abdul Azeem</text>

  <!-- Institution -->
  <rect x="1033" y="10" width="148" height="88" fill="#f0f4f8" rx="4"/>
  <text x="1107" y="26" font-size="8.5" fill="#1a3a5c" font-weight="bold" text-anchor="middle">🏛 INSTITUTION</text>
  <line x1="1041" y1="30" x2="1173" y2="30" stroke="#ccc" stroke-width="0.5"/>
  <text x="1107" y="44" font-size="7.5" fill="#333" text-anchor="middle">Zewail City of Science</text>
  <text x="1107" y="55" font-size="7.5" fill="#333" text-anchor="middle">and Technology</text>
  <text x="1107" y="66" font-size="7.5" fill="#333" text-anchor="middle">Computational Sciences</text>
  <text x="1107" y="77" font-size="7.5" fill="#333" text-anchor="middle">and Artificial Intelligence</text>
  <text x="1107" y="88" font-size="7.5" fill="#333" text-anchor="middle">(CSAI)</text>

  <!-- ===== LEFT COLUMN ===== -->

  <!-- BOX 1: Problem Statement -->
  <rect x="10" y="115" width="310" height="140" fill="white" rx="5" stroke="#e0e0e0" stroke-width="1"/>
  <rect x="10" y="115" width="310" height="24" fill="#1a3a5c" rx="5"/>
  <rect x="10" y="129" width="310" height="10" fill="#1a3a5c"/>
  <text x="20" y="131" font-size="11" fill="white" font-weight="bold">1  PROBLEM STATEMENT</text>
  <!-- Items -->
  <text x="20" y="153" font-size="8.5" fill="#c0392b">✗</text>
  <text x="33" y="153" font-size="8.5" fill="#333">Difficulty in finding accurate housing information</text>
  <text x="20" y="168" font-size="8.5" fill="#c0392b">✗</text>
  <text x="33" y="168" font-size="8.5" fill="#333">Lack of a unified platform for government housing</text>
  <text x="20" y="183" font-size="8.5" fill="#c0392b">✗</text>
  <text x="33" y="183" font-size="8.5" fill="#333">Limited interaction between users and housing providers</text>
  <text x="20" y="198" font-size="8.5" fill="#c0392b">✗</text>
  <text x="33" y="198" font-size="8.5" fill="#333">Complex application and booking procedures</text>
  <!-- Question mark icon placeholder -->
  <text x="270" y="185" font-size="40" fill="#e0e0e0" text-anchor="middle">?</text>

  <!-- BOX 2: Objectives -->
  <rect x="10" y="260" width="310" height="145" fill="white" rx="5" stroke="#e0e0e0" stroke-width="1"/>
  <rect x="10" y="260" width="310" height="24" fill="#1a3a5c" rx="5"/>
  <rect x="10" y="274" width="310" height="10" fill="#1a3a5c"/>
  <text x="20" y="276" font-size="11" fill="white" font-weight="bold">2  OBJECTIVES</text>
  <text x="20" y="298" font-size="8.5" fill="#2d7d46">✓</text>
  <text x="33" y="298" font-size="8.5" fill="#333">Provide a centralized platform for government housing</text>
  <text x="20" y="313" font-size="8.5" fill="#2d7d46">✓</text>
  <text x="33" y="313" font-size="8.5" fill="#333">Simplify searching, comparing and application processes</text>
  <text x="20" y="328" font-size="8.5" fill="#2d7d46">✓</text>
  <text x="33" y="328" font-size="8.5" fill="#333">Improve transparency of housing information</text>
  <text x="20" y="343" font-size="8.5" fill="#2d7d46">✓</text>
  <text x="33" y="343" font-size="8.5" fill="#333">Enhance user experience and satisfaction</text>
  <text x="20" y="358" font-size="8.5" fill="#2d7d46">✓</text>
  <text x="33" y="358" font-size="8.5" fill="#333">Reduce time and effort for users and administrators</text>

  <!-- BOX 3: Proposed Solution -->
  <rect x="10" y="410" width="310" height="205" fill="white" rx="5" stroke="#e0e0e0" stroke-width="1"/>
  <rect x="10" y="410" width="310" height="24" fill="#1a3a5c" rx="5"/>
  <rect x="10" y="424" width="310" height="10" fill="#1a3a5c"/>
  <text x="20" y="426" font-size="11" fill="white" font-weight="bold">3  PROPOSED SOLUTION</text>
  <text x="20" y="450" font-size="8.5" fill="#333">FINDOOR is a web and mobile-based platform that allows</text>
  <text x="20" y="463" font-size="8.5" fill="#333">users to explore, compare, and apply for housing units</text>
  <text x="20" y="476" font-size="8.5" fill="#333">easily. The system ensures transparency, accessibility,</text>
  <text x="20" y="489" font-size="8.5" fill="#333">and efficiency in the housing process.</text>

  <!-- Feature icons row -->
  <!-- Search & Filter -->
  <rect x="18" y="500" width="46" height="55" fill="#f8f9fa" rx="4"/>
  <text x="41" y="521" font-size="16" text-anchor="middle" fill="#1a3a5c">🔍</text>
  <text x="41" y="534" font-size="6" fill="#555" text-anchor="middle">Search &amp;</text>
  <text x="41" y="543" font-size="6" fill="#555" text-anchor="middle">Filter</text>
  <!-- Property Listings -->
  <rect x="68" y="500" width="46" height="55" fill="#f8f9fa" rx="4"/>
  <text x="91" y="521" font-size="16" text-anchor="middle" fill="#1a3a5c">🏠</text>
  <text x="91" y="534" font-size="6" fill="#555" text-anchor="middle">Property</text>
  <text x="91" y="543" font-size="6" fill="#555" text-anchor="middle">Listings</text>
  <!-- Booking -->
  <rect x="118" y="500" width="46" height="55" fill="#f8f9fa" rx="4"/>
  <text x="141" y="521" font-size="16" text-anchor="middle" fill="#1a3a5c">📋</text>
  <text x="141" y="534" font-size="6" fill="#555" text-anchor="middle">Booking &amp;</text>
  <text x="141" y="543" font-size="6" fill="#555" text-anchor="middle">Application</text>
  <!-- Notifications -->
  <rect x="168" y="500" width="46" height="55" fill="#f8f9fa" rx="4"/>
  <text x="191" y="521" font-size="16" text-anchor="middle" fill="#1a3a5c">🔔</text>
  <text x="191" y="534" font-size="6" fill="#555" text-anchor="middle">Notifications</text>
  <text x="191" y="543" font-size="6" fill="#555" text-anchor="middle">&amp; Updates</text>
  <!-- Admin -->
  <rect x="218" y="500" width="46" height="55" fill="#f8f9fa" rx="4"/>
  <text x="241" y="521" font-size="16" text-anchor="middle" fill="#1a3a5c">⚙️</text>
  <text x="241" y="534" font-size="6" fill="#555" text-anchor="middle">Admin</text>
  <text x="241" y="543" font-size="6" fill="#555" text-anchor="middle">Dashboard</text>
  <!-- AI -->
  <rect x="268" y="500" width="46" height="55" fill="#f8f9fa" rx="4"/>
  <text x="291" y="521" font-size="16" text-anchor="middle" fill="#1a3a5c">🤖</text>
  <text x="291" y="534" font-size="6" fill="#555" text-anchor="middle">AI Assistant</text>
  <text x="291" y="543" font-size="6" fill="#555" text-anchor="middle">&amp; Recommen.</text>

  <!-- Labels under icons -->
  <text x="41" y="558" font-size="5.5" fill="#777" text-anchor="middle"></text>

  <!-- BOX 4: System Users -->
  <rect x="10" y="620" width="310" height="100" fill="white" rx="5" stroke="#e0e0e0" stroke-width="1"/>
  <rect x="10" y="620" width="310" height="24" fill="#1a3a5c" rx="5"/>
  <rect x="10" y="634" width="310" height="10" fill="#1a3a5c"/>
  <text x="20" y="636" font-size="11" fill="white" font-weight="bold">4  SYSTEM USERS</text>
  <!-- User box -->
  <rect x="18" y="649" width="135" height="62" fill="#f0f4f8" rx="4"/>
  <text x="90" y="665" font-size="14" text-anchor="middle" fill="#1a3a5c">👤</text>
  <text x="90" y="678" font-size="8.5" fill="#1a3a5c" font-weight="bold" text-anchor="middle">USER</text>
  <text x="90" y="690" font-size="7" fill="#555" text-anchor="middle">Browse, search, compare</text>
  <text x="90" y="700" font-size="7" fill="#555" text-anchor="middle">and apply for housing units.</text>
  <!-- Admin box -->
  <rect x="160" y="649" width="152" height="62" fill="#f0f4f8" rx="4"/>
  <text x="236" y="665" font-size="14" text-anchor="middle" fill="#1a3a5c">🛡</text>
  <text x="236" y="678" font-size="8.5" fill="#1a3a5c" font-weight="bold" text-anchor="middle">ADMIN</text>
  <text x="236" y="690" font-size="7" fill="#555" text-anchor="middle">Manage projects, users,</text>
  <text x="236" y="700" font-size="7" fill="#555" text-anchor="middle">applications and approvals.</text>

  <!-- ===== MIDDLE COLUMN ===== -->

  <!-- BOX 5: System Architecture -->
  <rect x="328" y="115" width="490" height="270" fill="white" rx="5" stroke="#e0e0e0" stroke-width="1"/>
  <rect x="328" y="115" width="490" height="24" fill="#1a3a5c" rx="5"/>
  <rect x="328" y="129" width="490" height="10" fill="#1a3a5c"/>
  <text x="338" y="131" font-size="11" fill="white" font-weight="bold">5  SYSTEM ARCHITECTURE</text>

  <!-- USERS box -->
  <rect x="338" y="145" width="78" height="120" fill="#f0f4f8" rx="4" stroke="#1a3a5c" stroke-width="1"/>
  <text x="377" y="160" font-size="8.5" fill="#1a3a5c" font-weight="bold" text-anchor="middle">USERS</text>
  <text x="347" y="178" font-size="9" fill="#555">👤</text>
  <text x="362" y="180" font-size="7.5" fill="#333">User</text>
  <text x="347" y="197" font-size="9" fill="#555">👷</text>
  <text x="362" y="199" font-size="7.5" fill="#333">Employee</text>
  <text x="347" y="216" font-size="9" fill="#555">🛡</text>
  <text x="362" y="218" font-size="7.5" fill="#333">Admin</text>

  <!-- Arrow right -->
  <line x1="418" y1="195" x2="448" y2="195" stroke="#1a3a5c" stroke-width="1.5" marker-end="url(#arrow)"/>
  <line x1="448" y1="195" x2="418" y2="195" stroke="#1a3a5c" stroke-width="1.5" marker-end="url(#arrow)"/>

  <!-- FRONTEND box -->
  <rect x="452" y="145" width="118" height="120" fill="#e8f4fd" rx="4" stroke="#2c6e8a" stroke-width="1"/>
  <text x="511" y="161" font-size="8.5" fill="#1a3a5c" font-weight="bold" text-anchor="middle">FRONTEND</text>
  <rect x="462" y="167" width="98" height="38" fill="white" rx="3" stroke="#ccc" stroke-width="0.5"/>
  <text x="511" y="181" font-size="7" fill="#333" text-anchor="middle">💻 Web Application</text>
  <text x="511" y="192" font-size="7" fill="#555" text-anchor="middle">(React.js)</text>
  <rect x="462" y="210" width="98" height="38" fill="white" rx="3" stroke="#ccc" stroke-width="0.5"/>
  <text x="511" y="224" font-size="7" fill="#333" text-anchor="middle">📱 Mobile Application</text>
  <text x="511" y="235" font-size="7" fill="#555" text-anchor="middle">(Flutter)</text>

  <!-- Arrow right -->
  <line x1="572" y1="185" x2="600" y2="185" stroke="#1a3a5c" stroke-width="1.5"/>
  <line x1="572" y1="229" x2="600" y2="229" stroke="#1a3a5c" stroke-width="1.5"/>
  <line x1="600" y1="185" x2="600" y2="229" stroke="#1a3a5c" stroke-width="1.5"/>
  <line x1="600" y1="207" x2="620" y2="207" stroke="#1a3a5c" stroke-width="1.5" marker-end="url(#arrowBlue)"/>
  <line x1="658" y1="207" x2="680" y2="207" stroke="#1a3a5c" stroke-width="1.5" marker-end="url(#arrowBlue)"/>

  <!-- BACKEND API box -->
  <rect x="624" y="145" width="115" height="120" fill="#e8f4fd" rx="4" stroke="#2c6e8a" stroke-width="1"/>
  <text x="681" y="161" font-size="8.5" fill="#1a3a5c" font-weight="bold" text-anchor="middle">BACKEND API</text>
  <text x="681" y="180" font-size="18" text-anchor="middle" fill="#2c6e8a">☁</text>
  <text x="681" y="198" font-size="7.5" fill="#333" text-anchor="middle">Node.js + Express.js</text>
  <text x="681" y="214" font-size="8" fill="#1a3a5c" font-weight="bold" text-anchor="middle">REST API</text>
  <text x="681" y="228" font-size="9" fill="#555" text-anchor="middle">{ }</text>

  <!-- Arrow to DB -->
  <line x1="741" y1="207" x2="770" y2="207" stroke="#1a3a5c" stroke-width="1.5" marker-end="url(#arrowBlue)"/>

  <!-- DATABASE box -->
  <rect x="774" y="145" width="90" height="120" fill="#e8f4fd" rx="4" stroke="#2c6e8a" stroke-width="1"/>
  <text x="819" y="161" font-size="8.5" fill="#1a3a5c" font-weight="bold" text-anchor="middle">DATABASE</text>
  <!-- MongoDB leaf -->
  <text x="819" y="210" font-size="30" text-anchor="middle" fill="#4db33d">🍃</text>
  <text x="819" y="248" font-size="8" fill="#4db33d" font-weight="bold" text-anchor="middle">MongoDB</text>

  <!-- Vertical arrows to integrated services -->
  <line x1="681" y1="267" x2="681" y2="295" stroke="#1a3a5c" stroke-width="1.5" marker-end="url(#arrowBlue)"/>
  <line x1="819" y1="267" x2="819" y2="295" stroke="#1a3a5c" stroke-width="1.5" marker-end="url(#arrowBlue)"/>

  <!-- INTEGRATED SERVICES -->
  <rect x="450" y="298" width="460" height="60" fill="#1a3a5c" rx="4"/>
  <text x="680" y="314" font-size="8.5" fill="white" font-weight="bold" text-anchor="middle">INTEGRATED SERVICES</text>
  <!-- AI Assistant -->
  <rect x="460" y="320" width="195" height="30" fill="#2c6e8a" rx="3"/>
  <text x="557" y="332" font-size="8" fill="white" text-anchor="middle">🤖 AI Assistant &amp;</text>
  <text x="557" y="344" font-size="8" fill="white" text-anchor="middle">Recommendations</text>
  <!-- OCR Service -->
  <rect x="665" y="320" width="195" height="30" fill="#2c6e8a" rx="3"/>
  <text x="762" y="332" font-size="8" fill="white" text-anchor="middle">📄 OCR Service</text>
  <text x="762" y="344" font-size="8" fill="white" text-anchor="middle">(NID Scanner)</text>

  <!-- BOX 7: System Interface -->
  <rect x="328" y="393" width="490" height="235" fill="white" rx="5" stroke="#e0e0e0" stroke-width="1"/>
  <rect x="328" y="393" width="490" height="24" fill="#1a3a5c" rx="5"/>
  <rect x="328" y="407" width="490" height="10" fill="#1a3a5c"/>
  <text x="338" y="409" font-size="11" fill="white" font-weight="bold">7  SYSTEM INTERFACE (UI/UX)</text>

  <!-- Four UI screenshot placeholders -->
  <!-- Screenshot 1: Admin Dashboard -->
  <rect x="336" y="420" width="113" height="80" fill="#e8f0fe" rx="3" stroke="#b0bec5" stroke-width="1"/>
  <rect x="336" y="420" width="113" height="14" fill="#3d5a99" rx="3"/>
  <rect x="336" y="427" width="113" height="7" fill="#3d5a99"/>
  <text x="392" y="430" font-size="6" fill="white" text-anchor="middle">■ ■ ■</text>
  <!-- Simulated table -->
  <rect x="341" y="436" width="103" height="4" fill="#c5cae9" rx="1"/>
  <rect x="341" y="442" width="50" height="3" fill="#e8eaf6" rx="1"/>
  <rect x="393" y="442" width="51" height="3" fill="#e8eaf6" rx="1"/>
  <rect x="341" y="447" width="50" height="3" fill="#e8eaf6" rx="1"/>
  <rect x="393" y="447" width="51" height="3" fill="#e8eaf6" rx="1"/>
  <rect x="341" y="452" width="50" height="3" fill="#e8eaf6" rx="1"/>
  <rect x="393" y="452" width="51" height="3" fill="#e8eaf6" rx="1"/>
  <rect x="341" y="457" width="50" height="3" fill="#e8eaf6" rx="1"/>
  <rect x="393" y="457" width="51" height="3" fill="#e8eaf6" rx="1"/>
  <rect x="341" y="462" width="103" height="30" fill="#f5f5f5" rx="1"/>
  <text x="392" y="480" font-size="8" fill="#999" text-anchor="middle">dashboard view</text>
  <text x="392" y="507" font-size="6.5" fill="#1a3a5c" font-weight="bold" text-anchor="middle">Admin Dashboard -</text>
  <text x="392" y="516" font-size="6.5" fill="#1a3a5c" font-weight="bold" text-anchor="middle">Projects Management</text>
  <text x="392" y="528" font-size="6" fill="#555" text-anchor="middle">Manage housing projects,</text>
  <text x="392" y="537" font-size="6" fill="#555" text-anchor="middle">availability, prices, status</text>
  <text x="392" y="546" font-size="6" fill="#555" text-anchor="middle">and more.</text>

  <!-- Screenshot 2: AI Housing Assistant -->
  <rect x="455" y="420" width="113" height="80" fill="#e3f2fd" rx="3" stroke="#b0bec5" stroke-width="1"/>
  <rect x="455" y="420" width="113" height="14" fill="#1565c0" rx="3"/>
  <rect x="455" y="427" width="113" height="7" fill="#1565c0"/>
  <text x="511" y="430" font-size="6" fill="white" text-anchor="middle">AI Assistant</text>
  <rect x="460" y="436" width="98" height="55" fill="#f5f5f5" rx="2"/>
  <text x="511" y="456" font-size="20" text-anchor="middle" fill="#1565c0">🤖</text>
  <text x="511" y="475" font-size="6" fill="#555" text-anchor="middle">Chat interface</text>
  <text x="511" y="507" font-size="6.5" fill="#1a3a5c" font-weight="bold" text-anchor="middle">AI Housing Assistant</text>
  <text x="511" y="520" font-size="6" fill="#555" text-anchor="middle">AI-powered assistant to help</text>
  <text x="511" y="529" font-size="6" fill="#555" text-anchor="middle">users get project recommen-</text>
  <text x="511" y="538" font-size="6" fill="#555" text-anchor="middle">dations and answers to their</text>
  <text x="511" y="547" font-size="6" fill="#555" text-anchor="middle">questions.</text>

  <!-- Screenshot 3: NID OCR Scanner -->
  <rect x="574" y="420" width="113" height="80" fill="#e8f5e9" rx="3" stroke="#b0bec5" stroke-width="1"/>
  <rect x="574" y="420" width="113" height="14" fill="#2e7d32" rx="3"/>
  <rect x="574" y="427" width="113" height="7" fill="#2e7d32"/>
  <text x="630" y="430" font-size="6" fill="white" text-anchor="middle">NID OCR Scanner</text>
  <rect x="579" y="436" width="103" height="55" fill="#f5f5f5" rx="2"/>
  <!-- ID card visual -->
  <rect x="595" y="445" width="70" height="38" fill="#bbdefb" rx="3" stroke="#90caf9" stroke-width="1"/>
  <text x="630" y="466" font-size="8" fill="#1a237e" text-anchor="middle">📷 SCAN ID</text>
  <text x="630" y="478" font-size="6" fill="#555" text-anchor="middle">NID</text>
  <text x="630" y="507" font-size="6.5" fill="#1a3a5c" font-weight="bold" text-anchor="middle">NID OCR Scanner</text>
  <text x="630" y="520" font-size="6" fill="#555" text-anchor="middle">Scan National ID and auto-fill</text>
  <text x="630" y="529" font-size="6" fill="#555" text-anchor="middle">user data securely using</text>
  <text x="630" y="538" font-size="6" fill="#555" text-anchor="middle">OCR technology.</text>

  <!-- Screenshot 4: Projects Listing -->
  <rect x="693" y="420" width="117" height="80" fill="#fff3e0" rx="3" stroke="#b0bec5" stroke-width="1"/>
  <rect x="693" y="420" width="117" height="14" fill="#e65100" rx="3"/>
  <rect x="693" y="427" width="117" height="7" fill="#e65100"/>
  <text x="751" y="430" font-size="6" fill="white" text-anchor="middle">Projects Listing</text>
  <rect x="698" y="436" width="107" height="55" fill="#f5f5f5" rx="2"/>
  <!-- House grid -->
  <rect x="700" y="438" width="33" height="22" fill="#ffcc80" rx="1"/>
  <rect x="735" y="438" width="33" height="22" fill="#a5d6a7" rx="1"/>
  <rect x="770" y="438" width="33" height="22" fill="#90caf9" rx="1"/>
  <text x="716" y="452" font-size="10" text-anchor="middle" fill="white">🏠</text>
  <text x="751" y="452" font-size="10" text-anchor="middle" fill="white">🏠</text>
  <text x="786" y="452" font-size="10" text-anchor="middle" fill="white">🏠</text>
  <rect x="700" y="462" width="33" height="22" fill="#ce93d8" rx="1"/>
  <rect x="735" y="462" width="33" height="22" fill="#80cbc4" rx="1"/>
  <text x="716" y="476" font-size="10" text-anchor="middle" fill="white">🏠</text>
  <text x="751" y="476" font-size="10" text-anchor="middle" fill="white">🏠</text>
  <text x="751" y="507" font-size="6.5" fill="#1a3a5c" font-weight="bold" text-anchor="middle">Projects Listing</text>
  <text x="751" y="520" font-size="6" fill="#555" text-anchor="middle">Browse and explore available</text>
  <text x="751" y="529" font-size="6" fill="#555" text-anchor="middle">housing projects with</text>
  <text x="751" y="538" font-size="6" fill="#555" text-anchor="middle">detailed information.</text>

  <!-- BOX 9: Technologies Used -->
  <rect x="328" y="632" width="490" height="90" fill="white" rx="5" stroke="#e0e0e0" stroke-width="1"/>
  <rect x="328" y="632" width="490" height="24" fill="#1a3a5c" rx="5"/>
  <rect x="328" y="646" width="490" height="10" fill="#1a3a5c"/>
  <text x="338" y="648" font-size="11" fill="white" font-weight="bold">9  TECHNOLOGIES USED</text>

  <!-- Tech logos row -->
  <!-- React -->
  <rect x="338" y="658" width="62" height="56" fill="#f0f8ff" rx="4"/>
  <text x="369" y="685" font-size="22" text-anchor="middle" fill="#61dafb">⚛</text>
  <text x="369" y="704" font-size="7.5" fill="#333" text-anchor="middle">React.js</text>

  <!-- Flutter -->
  <rect x="404" y="658" width="62" height="56" fill="#f0f8ff" rx="4"/>
  <text x="435" y="685" font-size="22" text-anchor="middle" fill="#54c5f8">◈</text>
  <text x="435" y="704" font-size="7.5" fill="#333" text-anchor="middle">Flutter</text>

  <!-- Node.js -->
  <rect x="470" y="658" width="62" height="56" fill="#f0f8ff" rx="4"/>
  <text x="501" y="685" font-size="22" text-anchor="middle" fill="#68a063">⬡</text>
  <text x="501" y="704" font-size="7.5" fill="#333" text-anchor="middle">Node.js</text>

  <!-- Express -->
  <rect x="536" y="658" width="62" height="56" fill="#f0f8ff" rx="4"/>
  <text x="567" y="689" font-size="13" text-anchor="middle" fill="#333" font-weight="bold">express</text>
  <text x="567" y="704" font-size="7.5" fill="#333" text-anchor="middle">Express.js</text>

  <!-- MongoDB -->
  <rect x="602" y="658" width="62" height="56" fill="#f0f8ff" rx="4"/>
  <text x="633" y="685" font-size="22" text-anchor="middle" fill="#4db33d">🍃</text>
  <text x="633" y="704" font-size="7.5" fill="#333" text-anchor="middle">MongoDB</text>

  <!-- JWT -->
  <rect x="668" y="658" width="62" height="56" fill="#f0f8ff" rx="4"/>
  <text x="699" y="683" font-size="12" text-anchor="middle" fill="#d63aff">🔐</text>
  <text x="699" y="695" font-size="7.5" fill="#333" text-anchor="middle" font-weight="bold">JWT</text>
  <text x="699" y="704" font-size="7.5" fill="#333" text-anchor="middle">Authentication</text>

  <!-- OCR -->
  <rect x="734" y="658" width="72" height="56" fill="#f0f8ff" rx="4"/>
  <text x="770" y="683" font-size="12" text-anchor="middle" fill="#1a3a5c">📝</text>
  <text x="770" y="695" font-size="7.5" fill="#333" text-anchor="middle" font-weight="bold">OCR</text>
  <text x="770" y="704" font-size="7.5" fill="#333" text-anchor="middle">Technology</text>

  <!-- ===== RIGHT COLUMN ===== -->

  <!-- BOX 6: Methodology -->
  <rect x="826" y="115" width="356" height="120" fill="white" rx="5" stroke="#e0e0e0" stroke-width="1"/>
  <rect x="826" y="115" width="356" height="24" fill="#1a3a5c" rx="5"/>
  <rect x="826" y="129" width="356" height="10" fill="#1a3a5c"/>
  <text x="836" y="131" font-size="11" fill="white" font-weight="bold">6  METHODOLOGY</text>

  <!-- Methodology steps -->
  <!-- Step circles with arrows -->
  <circle cx="855" cy="175" r="18" fill="#e8f4fd" stroke="#2c6e8a" stroke-width="1.5"/>
  <text x="855" y="171" font-size="7" fill="#1a3a5c" text-anchor="middle" font-weight="bold">Require-</text>
  <text x="855" y="180" font-size="7" fill="#1a3a5c" text-anchor="middle" font-weight="bold">ment</text>
  <text x="855" y="200" font-size="6.5" fill="#555" text-anchor="middle">Analysis</text>

  <text x="892" y="178" font-size="14" fill="#1a3a5c" text-anchor="middle">→</text>

  <circle cx="916" cy="175" r="18" fill="#e8f4fd" stroke="#2c6e8a" stroke-width="1.5"/>
  <text x="916" y="171" font-size="7" fill="#1a3a5c" text-anchor="middle" font-weight="bold">System</text>
  <text x="916" y="180" font-size="7" fill="#1a3a5c" text-anchor="middle" font-weight="bold">Design</text>
  <text x="916" y="200" font-size="6.5" fill="#555" text-anchor="middle">Design</text>

  <text x="953" y="178" font-size="14" fill="#1a3a5c" text-anchor="middle">→</text>

  <circle cx="977" cy="175" r="18" fill="#e8f4fd" stroke="#2c6e8a" stroke-width="1.5"/>
  <text x="977" y="175" font-size="10" fill="#1a3a5c" text-anchor="middle">&lt;/&gt;</text>
  <text x="977" y="200" font-size="6.5" fill="#555" text-anchor="middle">Development</text>

  <text x="1014" y="178" font-size="14" fill="#1a3a5c" text-anchor="middle">→</text>

  <circle cx="1038" cy="175" r="18" fill="#e8f4fd" stroke="#2c6e8a" stroke-width="1.5"/>
  <text x="1038" y="175" font-size="10" fill="#1a3a5c" text-anchor="middle">✓</text>
  <text x="1038" y="200" font-size="6.5" fill="#555" text-anchor="middle">Testing</text>

  <text x="1075" y="178" font-size="14" fill="#1a3a5c" text-anchor="middle">→</text>

  <circle cx="1099" cy="175" r="18" fill="#e8f4fd" stroke="#2c6e8a" stroke-width="1.5"/>
  <text x="1099" y="175" font-size="10" fill="#1a3a5c" text-anchor="middle">▲</text>
  <text x="1099" y="200" font-size="6.5" fill="#555" text-anchor="middle">Deployment</text>

  <text x="1136" y="178" font-size="14" fill="#1a3a5c" text-anchor="middle">→</text>

  <circle cx="1160" cy="175" r="18" fill="#e8f4fd" stroke="#2c6e8a" stroke-width="1.5"/>
  <text x="1160" y="175" font-size="10" fill="#1a3a5c" text-anchor="middle">⚙</text>
  <text x="1160" y="200" font-size="6.5" fill="#555" text-anchor="middle">Maintenance</text>

  <!-- Agile note -->
  <rect x="835" y="208" width="338" height="20" fill="#f8f9fa" rx="3"/>
  <text x="1004" y="221" font-size="7.5" fill="#333" text-anchor="middle">Agile methodology was followed to ensure continuous improvement, flexibility and regular delivery of system features.</text>

  <!-- BOX 8: Results & Evaluation -->
  <rect x="826" y="240" width="356" height="385" fill="white" rx="5" stroke="#e0e0e0" stroke-width="1"/>
  <rect x="826" y="240" width="356" height="24" fill="#1a3a5c" rx="5"/>
  <rect x="826" y="254" width="356" height="10" fill="#1a3a5c"/>
  <text x="836" y="256" font-size="11" fill="white" font-weight="bold">8  RESULTS &amp; EVALUATION</text>

  <!-- User Satisfaction chart -->
  <text x="940" y="279" font-size="9" fill="#1a3a5c" font-weight="bold" text-anchor="middle">User Satisfaction</text>
  <!-- Y axis -->
  <text x="836" y="291" font-size="7" fill="#777" text-anchor="end">(%)</text>
  <text x="836" y="296" font-size="7" fill="#777" text-anchor="end">100</text>
  <text x="836" y="321" font-size="7" fill="#777" text-anchor="end">75</text>
  <text x="836" y="346" font-size="7" fill="#777" text-anchor="end">50</text>
  <text x="836" y="371" font-size="7" fill="#777" text-anchor="end">25</text>
  <text x="836" y="396" font-size="7" fill="#777" text-anchor="end">0</text>

  <!-- Bar chart base line -->
  <line x1="840" y1="393" x2="1000" y2="393" stroke="#999" stroke-width="0.5"/>
  <line x1="840" y1="293" x2="1000" y2="293" stroke="#ddd" stroke-width="0.5" stroke-dasharray="2,2"/>
  <line x1="840" y1="318" x2="1000" y2="318" stroke="#ddd" stroke-width="0.5" stroke-dasharray="2,2"/>
  <line x1="840" y1="343" x2="1000" y2="343" stroke="#ddd" stroke-width="0.5" stroke-dasharray="2,2"/>
  <line x1="840" y1="368" x2="1000" y2="368" stroke="#ddd" stroke-width="0.5" stroke-dasharray="2,2"/>

  <!-- Bars: Ease of Use 92%, Information Accuracy 90%, System Efficiency 88%, Overall 94% -->
  <!-- Bar 1: 92% -->
  <rect x="855" y="301" width="28" height="92" fill="#2d7d46" rx="2"/>
  <text x="869" y="298" font-size="7.5" fill="#1a3a5c" font-weight="bold" text-anchor="middle">92%</text>
  <text x="869" y="404" font-size="6.5" fill="#555" text-anchor="middle">Ease of</text>
  <text x="869" y="412" font-size="6.5" fill="#555" text-anchor="middle">Use</text>

  <!-- Bar 2: 90% -->
  <rect x="897" y="303" width="28" height="90" fill="#2d7d46" rx="2"/>
  <text x="911" y="300" font-size="7.5" fill="#1a3a5c" font-weight="bold" text-anchor="middle">90%</text>
  <text x="911" y="404" font-size="6.5" fill="#555" text-anchor="middle">Information</text>
  <text x="911" y="412" font-size="6.5" fill="#555" text-anchor="middle">Accuracy</text>

  <!-- Bar 3: 88% -->
  <rect x="939" y="305" width="28" height="88" fill="#2d7d46" rx="2"/>
  <text x="953" y="302" font-size="7.5" fill="#1a3a5c" font-weight="bold" text-anchor="middle">88%</text>
  <text x="953" y="404" font-size="6.5" fill="#555" text-anchor="middle">System</text>
  <text x="953" y="412" font-size="6.5" fill="#555" text-anchor="middle">Efficiency</text>

  <!-- Bar 4: 94% -->
  <rect x="981" y="299" width="28" height="94" fill="#2d7d46" rx="2"/>
  <text x="995" y="296" font-size="7.5" fill="#1a3a5c" font-weight="bold" text-anchor="middle">94%</text>
  <text x="995" y="404" font-size="6.5" fill="#555" text-anchor="middle">Overall</text>
  <text x="995" y="412" font-size="6.5" fill="#555" text-anchor="middle">Satisfaction</text>

  <!-- Key Achievements (right of chart) -->
  <text x="1020" y="280" font-size="8.5" fill="#1a3a5c" font-weight="bold">Key Achievements</text>
  <text x="1020" y="297" font-size="8" fill="#2d7d46">✓</text>
  <text x="1033" y="297" font-size="7.5" fill="#333">Simplified housing search</text>
  <text x="1033" y="307" font-size="7.5" fill="#333">process</text>
  <text x="1020" y="321" font-size="8" fill="#2d7d46">✓</text>
  <text x="1033" y="321" font-size="7.5" fill="#333">Improved accessibility to</text>
  <text x="1033" y="331" font-size="7.5" fill="#333">government services</text>
  <text x="1020" y="345" font-size="8" fill="#2d7d46">✓</text>
  <text x="1033" y="345" font-size="7.5" fill="#333">Enhanced user experience</text>
  <text x="1020" y="363" font-size="8" fill="#2d7d46">✓</text>
  <text x="1033" y="363" font-size="7.5" fill="#333">Reduced time and effort</text>
  <text x="1033" y="373" font-size="7.5" fill="#333">for users</text>

  <!-- Evaluation Metrics Table -->
  <rect x="835" y="417" width="335" height="100" fill="white" rx="3" stroke="#ddd" stroke-width="1"/>
  <rect x="835" y="417" width="335" height="20" fill="#1a3a5c" rx="3"/>
  <rect x="835" y="430" width="335" height="7" fill="#1a3a5c"/>
  <text x="1002" y="430" font-size="8.5" fill="white" font-weight="bold" text-anchor="middle">Evaluation Metrics</text>
  <!-- Table header -->
  <rect x="835" y="437" width="220" height="14" fill="#e8eaf6"/>
  <rect x="1055" y="437" width="115" height="14" fill="#e8eaf6"/>
  <text x="945" y="447" font-size="8" fill="#1a3a5c" font-weight="bold" text-anchor="middle">Metric</text>
  <text x="1112" y="447" font-size="8" fill="#1a3a5c" font-weight="bold" text-anchor="middle">Result</text>
  <line x1="1055" y1="437" x2="1055" y2="517" stroke="#ddd" stroke-width="1"/>
  <!-- Row 1 -->
  <rect x="835" y="451" width="335" height="14" fill="white"/>
  <text x="945" y="461" font-size="7.5" fill="#333" text-anchor="middle">Search Time Reduction</text>
  <text x="1112" y="461" font-size="7.5" fill="#2d7d46" font-weight="bold" text-anchor="middle">70%</text>
  <!-- Row 2 -->
  <rect x="835" y="465" width="335" height="14" fill="#f8f9fa"/>
  <text x="945" y="475" font-size="7.5" fill="#333" text-anchor="middle">User Satisfaction</text>
  <text x="1112" y="475" font-size="7.5" fill="#2d7d46" font-weight="bold" text-anchor="middle">92%</text>
  <!-- Row 3 -->
  <rect x="835" y="479" width="335" height="14" fill="white"/>
  <text x="945" y="489" font-size="7.5" fill="#333" text-anchor="middle">OCR Accuracy</text>
  <text x="1112" y="489" font-size="7.5" fill="#2d7d46" font-weight="bold" text-anchor="middle">95%</text>
  <!-- Row 4 -->
  <rect x="835" y="493" width="335" height="14" fill="#f8f9fa"/>
  <text x="945" y="503" font-size="7.5" fill="#333" text-anchor="middle">System Availability</text>
  <text x="1112" y="503" font-size="7.5" fill="#2d7d46" font-weight="bold" text-anchor="middle">99%</text>
  <!-- Table border -->
  <rect x="835" y="437" width="335" height="80" fill="none" stroke="#ddd" stroke-width="1"/>

  <!-- Stats boxes -->
  <rect x="835" y="523" width="80" height="50" fill="#f0f4f8" rx="4"/>
  <text x="875" y="540" font-size="14" text-anchor="middle" fill="#1a3a5c">👥</text>
  <text x="875" y="553" font-size="9" text-anchor="middle" fill="#1a3a5c" font-weight="bold">500+</text>
  <text x="875" y="564" font-size="7" text-anchor="middle" fill="#555">Registered Users</text>

  <rect x="922" y="523" width="80" height="50" fill="#f0f4f8" rx="4"/>
  <text x="962" y="540" font-size="14" text-anchor="middle" fill="#1a3a5c">🏗</text>
  <text x="962" y="553" font-size="9" text-anchor="middle" fill="#1a3a5c" font-weight="bold">35+</text>
  <text x="962" y="564" font-size="7" text-anchor="middle" fill="#555">Housing Projects</text>

  <rect x="1009" y="523" width="80" height="50" fill="#f0f4f8" rx="4"/>
  <text x="1049" y="540" font-size="14" text-anchor="middle" fill="#1a3a5c">🏠</text>
  <text x="1049" y="553" font-size="9" text-anchor="middle" fill="#1a3a5c" font-weight="bold">1200+</text>
  <text x="1049" y="564" font-size="7" text-anchor="middle" fill="#555">Available Units</text>

  <rect x="1096" y="523" width="85" height="50" fill="#f0f4f8" rx="4"/>
  <text x="1138" y="540" font-size="14" text-anchor="middle" fill="#1a3a5c">📋</text>
  <text x="1138" y="553" font-size="9" text-anchor="middle" fill="#1a3a5c" font-weight="bold">300+</text>
  <text x="1138" y="564" font-size="7" text-anchor="middle" fill="#555">Applications Submitted</text>

  <!-- ===== BOTTOM ROW ===== -->

  <!-- BOX 10: Conclusion -->
  <rect x="328" y="730" width="490" height="103" fill="white" rx="5" stroke="#e0e0e0" stroke-width="1"/>
  <rect x="328" y="730" width="490" height="24" fill="#1a3a5c" rx="5"/>
  <rect x="328" y="744" width="490" height="10" fill="#1a3a5c"/>
  <text x="338" y="746" font-size="11" fill="white" font-weight="bold">10  CONCLUSION</text>
  <text x="338" y="768" font-size="8.5" fill="#333">FINDOOR presents a smart and scalable solution for managing government housing</text>
  <text x="338" y="782" font-size="8.5" fill="#333">services digitally. The system improves transparency, accessibility, and efficiency,</text>
  <text x="338" y="796" font-size="8.5" fill="#333">making the housing process easier for users and more effective for administrators.</text>
  <!-- House illustration -->
  <text x="790" y="800" font-size="48" text-anchor="middle" fill="#2d7d46" opacity="0.2">🏡</text>

  <!-- BOX 11: Scan QR + tagline -->
  <rect x="826" y="630" width="356" height="203" fill="#1a3a5c" rx="5"/>
  <text x="856" y="655" font-size="9" fill="white" font-weight="bold">11  SCAN TO VIEW</text>
  <text x="856" y="669" font-size="9" fill="white" font-weight="bold">     GITHUB REPOSITORY</text>
  <text x="856" y="683" font-size="9" fill="white" font-weight="bold">     OR DEMO</text>

  <!-- Arrow pointing to QR -->
  <text x="960" y="680" font-size="18" fill="white" text-anchor="middle">→</text>

  <!-- QR Code placeholder (simplified geometric) -->
  <rect x="980" y="635" width="90" height="90" fill="white" rx="4"/>
  <!-- QR pattern simulation -->
  <rect x="985" y="640" width="25" height="25" fill="#1a3a5c" rx="1"/>
  <rect x="988" y="643" width="19" height="19" fill="white" rx="1"/>
  <rect x="991" y="646" width="13" height="13" fill="#1a3a5c" rx="1"/>
  <rect x="1040" y="640" width="25" height="25" fill="#1a3a5c" rx="1"/>
  <rect x="1043" y="643" width="19" height="19" fill="white" rx="1"/>
  <rect x="1046" y="646" width="13" height="13" fill="#1a3a5c" rx="1"/>
  <rect x="985" y="695" width="25" height="25" fill="#1a3a5c" rx="1"/>
  <rect x="988" y="698" width="19" height="19" fill="white" rx="1"/>
  <rect x="991" y="701" width="13" height="13" fill="#1a3a5c" rx="1"/>
  <!-- Middle pattern -->
  <rect x="1014" y="640" width="22" height="4" fill="#1a3a5c"/>
  <rect x="1014" y="648" width="4" height="4" fill="#1a3a5c"/>
  <rect x="1022" y="648" width="4" height="4" fill="#1a3a5c"/>
  <rect x="1030" y="648" width="4" height="4" fill="#1a3a5c"/>
  <rect x="1014" y="656" width="4" height="4" fill="#1a3a5c"/>
  <rect x="1022" y="656" width="4" height="4" fill="#1a3a5c"/>
  <rect x="1014" y="664" width="22" height="4" fill="#1a3a5c"/>
  <rect x="1022" y="672" width="4" height="4" fill="#1a3a5c"/>
  <rect x="1030" y="672" width="4" height="4" fill="#1a3a5c"/>
  <rect x="1014" y="680" width="4" height="4" fill="#1a3a5c"/>
  <rect x="1022" y="680" width="4" height="4" fill="#1a3a5c"/>
  <rect x="1030" y="680" width="4" height="4" fill="#1a3a5c"/>
  <rect x="1014" y="688" width="22" height="4" fill="#1a3a5c"/>
  <rect x="1034" y="672" width="4" height="4" fill="#1a3a5c"/>
  <rect x="1038" y="664" width="4" height="4" fill="#1a3a5c"/>
  <rect x="1038" y="680" width="10" height="4" fill="#1a3a5c"/>
  <rect x="1038" y="695" width="10" height="4" fill="#1a3a5c"/>
  <rect x="1046" y="704" width="4" height="4" fill="#1a3a5c"/>
  <rect x="1038" y="710" width="10" height="4" fill="#1a3a5c"/>

  <!-- Taglines right column -->
  <text x="836" y="745" font-size="9" fill="white">Find.</text>
  <text x="836" y="758" font-size="9" fill="white">Compare.</text>
  <text x="836" y="771" font-size="9" fill="white">Apply.</text>
  <line x1="870" y1="736" x2="870" y2="780" stroke="#ffffff" stroke-width="0.5" opacity="0.4"/>
  <text x="880" y="745" font-size="9" fill="#90caf9">Transparent.</text>
  <text x="880" y="758" font-size="9" fill="#90caf9">Accessible.</text>
  <text x="880" y="771" font-size="9" fill="#90caf9">Reliable.</text>

  <text x="836" y="800" font-size="8" fill="white" opacity="0.85">Building Better</text>
  <text x="836" y="813" font-size="8" fill="white" opacity="0.85">Communities</text>
  <text x="836" y="826" font-size="8" fill="white" opacity="0.85">Together.</text>

  <!-- Arrow defs -->
  <defs>
    <marker id="arrow" markerWidth="8" markerHeight="8" refX="6" refY="3" orient="auto">
      <path d="M0,0 L0,6 L8,3 z" fill="#1a3a5c"/>
    </marker>
    <marker id="arrowBlue" markerWidth="8" markerHeight="8" refX="6" refY="3" orient="auto">
      <path d="M0,0 L0,6 L8,3 z" fill="#1a3a5c"/>
    </marker>
  </defs>

  <!-- Outer border -->
  <rect x="1" y="1" width="1188" height="839" fill="none" stroke="#1a3a5c" stroke-width="2" rx="4"/>
</svg>
